<?xml version="1.0" encoding="UTF-8" standalone="no"?>
<!DOCTYPE svg PUBLIC "-//W3C//DTD SVG 1.1//EN" "http://www.w3.org/Graphics/SVG/1.1/DTD/svg11.dtd">
<svg xmlns="http://www.w3.org/2000/svg"
  xmlns:xlink="http://www.w3.org/1999/xlink" version="1.1" width="1080" height="1080" viewBox="0 0 1080 1080" xml:space="preserve">
  <desc>Created with Fabric.js 5.2.4</desc>
  <defs>
    <linearGradient id="gradient" x1="0" x2="0" y1="0" y2="1">
      <stop offset="0%" stop-color="#4A7BF9" />
      <stop offset="100%" stop-color="#4AD6F9" />
    </linearGradient>
  </defs>
  <g transform="matrix(1 0 0 1 540 540)" fill="url(#gradient)">
    <g style="" vector-effect="non-scaling-stroke">
      <g transform="matrix(1.76 0 0 1.76 -0.03 -0.04)">
        <path style="stroke: none; stroke-width: 1; stroke-dasharray: none; stroke-linecap: butt; stroke-dashoffset: 0; stroke-linejoin: miter; stroke-miterlimit: 4;  fill-rule: nonzero; opacity: 1;" vector-effect="non-scaling-stroke" transform=" translate(-227.25, -227.25)" d="M 429.564 444.234 L 334.57500000000005 350.318 C 336.04300000000006 350.413 337.516 350.478 338.999 350.478 C 375.94800000000004 350.478 406.00800000000004 320.418 406.00800000000004 283.469 C 406.00800000000004 261.633 395.34000000000003 241.291 377.747 228.804 C 384.999 219.31 388.926 207.763 388.926 195.61599999999999 C 388.926 165.39499999999998 364.339 140.80899999999997 334.118 140.80899999999997 C 320.072 140.80899999999997 306.592 146.22699999999998 296.461 155.81199999999995 C 285.78700000000003 150.77499999999995 274.011 148.12999999999997 262.129 148.12999999999997 C 251.88800000000003 148.12999999999997 241.80200000000002 150.10899999999998 232.407 153.84299999999996 L 78.556 1.733 C 76.2 -0.5960000000000001 72.401 -0.5760000000000001 70.071 1.7810000000000001 C 67.741 4.1370000000000005 67.763 7.936 70.119 10.266 L 221.012 159.45399999999998 C 217.393 161.605 213.925 164.02999999999997 210.664 166.748 C 208.119 168.87 207.77499999999998 172.653 209.896 175.19899999999998 C 212.01799999999997 177.74399999999997 215.802 178.08899999999997 218.34699999999998 175.96699999999998 C 230.599 165.75599999999997 246.14799999999997 160.13199999999998 262.12899999999996 160.13199999999998 C 273.551 160.13199999999998 284.854 163.00099999999998 294.81399999999996 168.42999999999998 C 297.26199999999994 169.765 300.311 169.23499999999999 302.16599999999994 167.152 C 310.2819999999999 158.03799999999998 321.9289999999999 152.81099999999998 334.1189999999999 152.81099999999998 C 357.7229999999999 152.81099999999998 376.9269999999999 172.01399999999998 376.9269999999999 195.618 C 376.9269999999999 205.46099999999998 373.6189999999999 214.792 367.5419999999999 222.35999999999999 C 360.80799999999994 218.678 347.2499999999999 213.314 327.7949999999999 215.30999999999997 C 322.3489999999999 199.58299999999997 307.3979999999999 188.25499999999997 289.84199999999987 188.25499999999997 C 286.5289999999999 188.25499999999997 283.84199999999987 190.94199999999998 283.84199999999987 194.25499999999997 C 283.84199999999987 197.56799999999996 286.5289999999999 200.25499999999997 289.84199999999987 200.25499999999997 C 305.36899999999986 200.25499999999997 318.0019999999999 212.88799999999998 318.0019999999999 228.41499999999996 C 318.0019999999999 240.92099999999996 309.9769999999999 251.75399999999996 298.0319999999999 255.37299999999996 C 294.8599999999999 256.33299999999997 293.0679999999999 259.68299999999994 294.02899999999994 262.854 C 294.81399999999996 265.44599999999997 297.19399999999996 267.116 299.76899999999995 267.116 C 300.34499999999997 267.116 300.9309999999999 267.03299999999996 301.50999999999993 266.85699999999997 C 318.5519999999999 261.695 330.0009999999999 246.24599999999998 330.0009999999999 228.41499999999996 C 330.0009999999999 227.99199999999996 329.9819999999999 227.57399999999996 329.96899999999994 227.15399999999997 C 343.86799999999994 225.90599999999998 354.05299999999994 229.22799999999998 359.74499999999995 231.90099999999995 C 363.15999999999997 233.50499999999997 368.08599999999996 236.76399999999995 369.20699999999994 237.50199999999995 C 384.60099999999994 247.63499999999996 394.0079999999999 264.89399999999995 394.0079999999999 283.46999999999997 C 394.0079999999999 313.80199999999996 369.3309999999999 338.479 338.9989999999999 338.479 C 331.9659999999999 338.479 325.1329999999999 337.175 318.6839999999999 334.60699999999997 L 33.373 52.52 C 31.016999999999996 50.190000000000005 27.217 50.211000000000006 24.887999999999998 52.568000000000005 C 22.558 54.92400000000001 22.58 58.723000000000006 24.935999999999996 61.053000000000004 L 421.126 452.767 C 422.296 453.923 423.82 454.5 425.34499999999997 454.5 C 426.892 454.5 428.438 453.905 429.61199999999997 452.718 C 431.942 450.363 431.921 446.564 429.564 444.234 z" stroke-linecap="round" />
      </g>
    </g>
  </g>
</svg>
