<?xml version="1.0" encoding="UTF-8" standalone="no"?>
<!DOCTYPE svg PUBLIC "-//W3C//DTD SVG 1.1//EN" "http://www.w3.org/Graphics/SVG/1.1/DTD/svg11.dtd">
<svg xmlns="http://www.w3.org/2000/svg" xmlns:xlink="http://www.w3.org/1999/xlink" version="1.1" width="1080" height="1080" viewBox="0 0 1080 1080" xml:space="preserve">
  <desc>Created with Fabric.js 5.2.4</desc>
  <defs>
    <linearGradient id="gradient" x1="0" x2="0" y1="0" y2="1">
      <stop offset="0%" stop-color="#4A7BF9" />
      <stop offset="100%" stop-color="#4AD6F9" />
    </linearGradient>
  </defs>
  <g transform="matrix(1 0 0 1 540 540)" fill="url(#gradient)">
    <g style="" vector-effect="non-scaling-stroke">
      <g transform="matrix(1.76 0 0 1.76 -217.47 33.4)">
        <path style="stroke: none; stroke-width: 1; stroke-dasharray: none; stroke-linecap: butt; stroke-dashoffset: 0; stroke-linejoin: miter; stroke-miterlimit: 4;  fill-rule: nonzero; opacity: 1;" vector-effect="non-scaling-stroke" transform=" translate(-103.7, -246.23)" d="M 120.451 223.086 C 122.53299999999999 225.662 126.30999999999999 226.06500000000003 128.88899999999998 223.98100000000002 C 131.46599999999998 221.89800000000002 131.867 218.121 129.784 215.54300000000003 L 108.36599999999999 189.04000000000002 C 107.22699999999999 187.63100000000003 105.51199999999999 186.811 103.69899999999998 186.811 C 101.88599999999998 186.811 100.17199999999998 187.63 99.03199999999998 189.04000000000002 L 77.61399999999998 215.543 C 75.53099999999998 218.121 75.93199999999997 221.898 78.50899999999997 223.981 C 79.61899999999997 224.878 80.95199999999997 225.314 82.27699999999997 225.314 C 84.02699999999997 225.314 85.76199999999997 224.552 86.94699999999997 223.08499999999998 L 97.69799999999998 209.78099999999998 L 97.69799999999998 221.03599999999997 L 77.615 245.89 C 75.532 248.468 75.93299999999999 252.24499999999998 78.50999999999999 254.32799999999997 C 79.61999999999999 255.22499999999997 80.95299999999999 255.66099999999997 82.27799999999999 255.66099999999997 C 84.02799999999999 255.66099999999997 85.76299999999999 254.89899999999997 86.948 253.43199999999996 L 97.699 240.12799999999996 L 97.699 251.38299999999995 L 77.615 276.23599999999993 C 75.532 278.8139999999999 75.93299999999999 282.59099999999995 78.50999999999999 284.6739999999999 C 79.61999999999999 285.5709999999999 80.95299999999999 286.00699999999995 82.27799999999999 286.00699999999995 C 84.02799999999999 286.00699999999995 85.76299999999999 285.24499999999995 86.948 283.77799999999996 L 97.699 270.474 L 97.699 299.647 C 97.699 302.96 100.38499999999999 305.647 103.699 305.647 C 107.013 305.647 109.699 302.96 109.699 299.647 L 109.699 270.473 L 120.451 283.777 C 122.53299999999999 286.353 126.30999999999999 286.756 128.88899999999998 284.67199999999997 C 131.46599999999998 282.58899999999994 131.867 278.81199999999995 129.784 276.234 L 109.69899999999998 251.38099999999997 L 109.69899999999998 240.12599999999998 L 120.45099999999998 253.42999999999998 C 122.53299999999997 256.006 126.30999999999997 256.409 128.88899999999998 254.325 C 131.46599999999998 252.242 131.867 248.46499999999997 129.784 245.887 L 109.69899999999998 221.034 L 109.69899999999998 209.779 L 120.451 223.086 z" stroke-linecap="round" />
      </g>
      <g transform="matrix(1.76 0 0 1.76 -0.03 -0.04)">
        <path style="stroke: none; stroke-width: 1; stroke-dasharray: none; stroke-linecap: butt; stroke-dashoffset: 0; stroke-linejoin: miter; stroke-miterlimit: 4;  fill-rule: nonzero; opacity: 1;" vector-effect="non-scaling-stroke" transform=" translate(-227.25, -227.25)" d="M 429.564 444.234 L 334.57500000000005 350.318 C 336.04300000000006 350.413 337.516 350.478 338.999 350.478 C 375.94800000000004 350.478 406.00800000000004 320.418 406.00800000000004 283.469 C 406.00800000000004 261.633 395.34000000000003 241.291 377.747 228.804 C 384.999 219.31 388.926 207.763 388.926 195.61599999999999 C 388.926 165.39499999999998 364.339 140.80899999999997 334.118 140.80899999999997 C 320.072 140.80899999999997 306.592 146.22699999999998 296.461 155.81199999999995 C 285.78700000000003 150.77499999999995 274.011 148.12999999999997 262.129 148.12999999999997 C 251.88800000000003 148.12999999999997 241.80200000000002 150.10899999999998 232.407 153.84299999999996 L 78.556 1.733 C 76.2 -0.5960000000000001 72.401 -0.5760000000000001 70.071 1.7810000000000001 C 67.741 4.1370000000000005 67.763 7.936 70.119 10.266 L 221.012 159.45399999999998 C 217.393 161.605 213.925 164.02999999999997 210.664 166.748 C 208.119 168.87 207.77499999999998 172.653 209.896 175.19899999999998 C 212.01799999999997 177.74399999999997 215.802 178.08899999999997 218.34699999999998 175.96699999999998 C 230.599 165.75599999999997 246.14799999999997 160.13199999999998 262.12899999999996 160.13199999999998 C 273.551 160.13199999999998 284.854 163.00099999999998 294.81399999999996 168.42999999999998 C 297.26199999999994 169.765 300.311 169.23499999999999 302.16599999999994 167.152 C 310.2819999999999 158.03799999999998 321.9289999999999 152.81099999999998 334.1189999999999 152.81099999999998 C 357.7229999999999 152.81099999999998 376.9269999999999 172.01399999999998 376.9269999999999 195.618 C 376.9269999999999 205.46099999999998 373.6189999999999 214.792 367.5419999999999 222.35999999999999 C 360.80799999999994 218.678 347.2499999999999 213.314 327.7949999999999 215.30999999999997 C 322.3489999999999 199.58299999999997 307.3979999999999 188.25499999999997 289.84199999999987 188.25499999999997 C 286.5289999999999 188.25499999999997 283.84199999999987 190.94199999999998 283.84199999999987 194.25499999999997 C 283.84199999999987 197.56799999999996 286.5289999999999 200.25499999999997 289.84199999999987 200.25499999999997 C 305.36899999999986 200.25499999999997 318.0019999999999 212.88799999999998 318.0019999999999 228.41499999999996 C 318.0019999999999 240.92099999999996 309.9769999999999 251.75399999999996 298.0319999999999 255.37299999999996 C 294.8599999999999 256.33299999999997 293.0679999999999 259.68299999999994 294.02899999999994 262.854 C 294.81399999999996 265.44599999999997 297.19399999999996 267.116 299.76899999999995 267.116 C 300.34499999999997 267.116 300.9309999999999 267.03299999999996 301.50999999999993 266.85699999999997 C 318.5519999999999 261.695 330.0009999999999 246.24599999999998 330.0009999999999 228.41499999999996 C 330.0009999999999 227.99199999999996 329.9819999999999 227.57399999999996 329.96899999999994 227.15399999999997 C 343.86799999999994 225.90599999999998 354.05299999999994 229.22799999999998 359.74499999999995 231.90099999999995 C 363.15999999999997 233.50499999999997 368.08599999999996 236.76399999999995 369.20699999999994 237.50199999999995 C 384.60099999999994 247.63499999999996 394.0079999999999 264.89399999999995 394.0079999999999 283.46999999999997 C 394.0079999999999 313.80199999999996 369.3309999999999 338.479 338.9989999999999 338.479 C 331.9659999999999 338.479 325.1329999999999 337.175 318.6839999999999 334.60699999999997 L 33.373 52.52 C 31.016999999999996 50.190000000000005 27.217 50.211000000000006 24.887999999999998 52.568000000000005 C 22.558 54.92400000000001 22.58 58.723000000000006 24.935999999999996 61.053000000000004 L 421.126 452.767 C 422.296 453.923 423.82 454.5 425.34499999999997 454.5 C 426.892 454.5 428.438 453.905 429.61199999999997 452.718 C 431.942 450.363 431.921 446.564 429.564 444.234 z" stroke-linecap="round" />
      </g>
      <g transform="matrix(1.76 0 0 1.76 -10.57 226.04)">
        <path style="stroke: none; stroke-width: 1; stroke-dasharray: none; stroke-linecap: butt; stroke-dashoffset: 0; stroke-linejoin: miter; stroke-miterlimit: 4;  fill-rule: nonzero; opacity: 1;" vector-effect="non-scaling-stroke" transform=" translate(-221.25, -355.68)" d="M 237.998 332.581 C 239.185 334.048 240.91899999999998 334.81 242.66899999999998 334.81 C 243.993 334.81 245.326 334.374 246.43699999999998 333.477 C 249.01399999999998 331.39399999999995 249.415 327.61699999999996 247.33299999999997 325.039 L 225.91499999999996 298.536 C 224.77599999999995 297.127 223.06099999999995 296.307 221.24799999999996 296.307 C 219.43499999999997 296.307 217.72099999999998 297.12600000000003 216.58099999999996 298.536 L 195.16299999999995 325.039 C 193.07999999999996 327.61699999999996 193.48099999999997 331.394 196.05799999999996 333.477 C 198.63499999999996 335.56 202.41299999999995 335.159 204.49599999999995 332.582 L 215.24699999999996 319.278 L 215.24699999999996 330.533 L 195.16299999999995 355.386 C 193.07999999999996 357.964 193.48099999999997 361.74100000000004 196.05799999999996 363.824 C 198.63499999999996 365.90700000000004 202.41299999999995 365.50600000000003 204.49599999999995 362.92900000000003 L 215.24699999999996 349.62500000000006 L 215.24699999999996 360.88000000000005 L 195.16299999999995 385.73300000000006 C 193.07999999999996 388.31100000000004 193.48099999999997 392.0880000000001 196.05799999999996 394.17100000000005 C 198.63499999999996 396.2540000000001 202.41299999999995 395.85300000000007 204.49599999999995 393.27600000000007 L 215.24699999999996 379.9720000000001 L 215.24699999999996 409.0450000000001 C 215.24699999999996 412.35800000000006 217.93299999999996 415.0450000000001 221.24699999999996 415.0450000000001 C 224.56099999999995 415.0450000000001 227.24699999999996 412.35800000000006 227.24699999999996 409.0450000000001 L 227.24699999999996 379.9720000000001 L 237.99799999999996 393.27600000000007 C 239.18499999999997 394.74300000000005 240.91899999999995 395.50500000000005 242.66899999999995 395.50500000000005 C 243.99299999999997 395.50500000000005 245.32599999999996 395.0690000000001 246.43699999999995 394.172 C 249.01399999999995 392.089 249.41499999999996 388.312 247.33299999999994 385.73400000000004 L 227.24799999999993 360.88100000000003 L 227.24799999999993 349.62600000000003 L 237.99899999999994 362.93 C 239.18599999999995 364.397 240.91999999999993 365.159 242.66999999999993 365.159 C 243.99399999999994 365.159 245.32699999999994 364.723 246.43799999999993 363.82599999999996 C 249.01499999999993 361.74299999999994 249.41599999999994 357.96599999999995 247.33399999999992 355.388 L 227.2489999999999 330.53499999999997 L 227.2489999999999 319.28 L 237.998 332.581 z" stroke-linecap="round" />
      </g>
    </g>
  </g>
</svg>
